<svg width="141" height="88" viewBox="0 0 141 88" fill="none" xmlns="http://www.w3.org/2000/svg">
<g clip-path="url(#clip0_3979_19594)">
<path fill-rule="evenodd" clip-rule="evenodd" d="M56.3394 36.8808V50.7735C56.3394 53.5292 58.0268 54.9867 60.5119 54.9867C61.6997 54.9867 62.7495 54.6725 63.0001 54.5908V52.3135C62.3815 52.5041 61.7385 52.6003 61.092 52.5989C59.6384 52.5989 58.9732 51.678 58.9732 50.4678V42.5944H62.63V40.3388H58.9732V38.8626C58.9732 37.4525 58.1471 36.7369 57.0942 36.7369C56.8452 36.7369 56.5892 36.7859 56.3394 36.88V36.8808ZM109.309 42.2242V42.1635C109.309 40.7534 108.573 40.0378 107.521 40.0378C107.271 40.0378 107.015 40.0868 106.766 40.1809V54.6865H109.398V44.7597C110.182 43.6817 111.766 42.4233 113.157 42.4233C114.696 42.4233 115.464 43.4367 115.464 44.9106V54.6865H118.096V44.7597C119.004 43.5122 120.464 42.4233 121.855 42.4233C123.393 42.4233 124.161 43.4367 124.161 44.9106V54.6865H126.793V44.7605C126.793 42.0569 125.59 40.037 122.336 40.037C120.353 40.037 118.887 41.1182 117.7 42.4349C117.302 41.4689 116.404 40.037 113.63 40.037C111.75 40.037 110.368 41.0513 109.309 42.2234V42.2242ZM100.111 42.1635C100.111 40.7534 99.3298 40.0378 98.2777 40.0378C98.0279 40.0378 97.772 40.0868 97.5229 40.1809V54.6865H100.155V46.204C100.902 44.4027 102.671 42.7414 105.007 42.7414V40.037C102.51 40.037 101.08 41.2652 100.11 43.0867V42.1635H100.111ZM16.3291 42.1635C16.3291 40.7534 15.549 40.0378 14.4961 40.0378C14.2471 40.0378 13.9911 40.0868 13.7413 40.1809V54.6865H16.3743V46.204C17.1215 44.4027 18.8894 42.7414 21.2258 42.7414V40.037C18.7284 40.037 17.2993 41.2652 16.3291 43.0867V42.1635ZM77.4266 47.3653C79.1354 45.4154 80.6489 43.0797 81.7263 40.2284L79.2933 39.3246C77.7415 43.4702 75.4227 46.253 72.6211 48.5599V34.3904H69.9881V54.6865H72.6211V51.6905C73.6413 50.9543 74.6135 50.1518 75.5315 49.2879L77.9354 53.4218C78.5354 54.4508 79.3347 54.9867 80.5324 54.9867C81.2068 54.9867 81.6045 54.7674 81.7524 54.6865L77.4273 47.3653H77.4266ZM2.94486 47.4975C2.94486 44.1585 4.65525 42.424 7.24613 42.424C9.21017 42.424 10.5006 43.1723 10.9121 43.4406C11.234 43.1287 11.493 42.585 11.493 42.0173C11.493 41.0676 10.3895 40.0378 7.14038 40.0378C3.35253 40.0378 0.191528 42.6247 0.191528 47.5278C0.191528 52.3104 3.06287 54.9867 6.84995 54.9867C9.12357 54.9867 10.9343 54.2478 11.4631 53.9686V51.3086C10.8861 51.7107 9.02778 52.5997 7.28444 52.5997C4.79932 52.5997 2.94486 50.8692 2.94486 47.4975ZM44.6471 43.2259C44.3253 43.0292 43.1758 42.424 41.7183 42.424C39.2845 42.424 37.6163 44.1406 37.6163 47.6904C37.6163 50.8482 39.1765 52.5966 42.5283 52.5966C43.2452 52.5975 43.9585 52.4937 44.6464 52.2886V43.2259H44.6471ZM47.2487 54.2603C46.6978 54.4042 45.0127 54.9898 42.5283 54.9898C37.0967 54.9898 35.0001 51.9075 35.0001 47.7666C35.0001 42.5329 37.9274 40.0324 41.2432 40.0324C43.0793 40.0324 44.3123 40.6142 44.6464 40.7892V34.3904H47.2487V54.2603ZM24.1002 46.6054C24.2144 44.4945 25.5562 42.3315 28.4712 42.3315C29.7739 42.3315 30.5571 43.0859 30.5571 44.0014C30.5571 46.0469 26.8819 46.6054 24.1002 46.6054ZM24.1186 48.682C28.0367 48.682 33.2231 48.0793 33.2231 43.8715C33.2231 41.7676 31.4989 40.037 28.6023 40.037C23.7148 40.037 21.3615 43.5293 21.3615 47.737C21.3615 51.7714 23.9232 54.9875 28.4919 54.9875C31.0345 54.9875 32.9342 54.2844 32.9342 52.8152C32.9342 52.1276 32.4974 51.5785 32.4008 51.4813C32.1495 51.6508 30.774 52.5989 28.6498 52.5989C25.6581 52.5989 24.4221 50.6296 24.1186 48.682ZM50.4626 54.6865H53.0956V40.338H50.4626V54.6865ZM51.7937 37.4509C50.8772 37.4509 50.1078 36.698 50.1078 35.7663C50.1078 34.8329 50.8772 34.0513 51.7937 34.0513C52.711 34.0513 53.4504 34.8337 53.4504 35.7663C53.4511 35.9874 53.4086 36.2065 53.3256 36.411C53.2426 36.6154 53.1207 36.8013 52.9667 36.9578C52.8128 37.1143 52.63 37.2384 52.4287 37.3231C52.2274 37.4077 52.0116 37.4511 51.7937 37.4509ZM137.847 50.7455C136.664 51.9783 135.464 52.6013 133.926 52.6013C132.433 52.6013 131.65 51.6322 131.65 50.6133C131.65 49.1394 132.806 47.9012 137.847 47.4065V50.7455ZM134.784 40.0363C131.42 40.0363 130.108 40.9572 130.108 42.0142C130.108 42.8176 130.569 43.313 130.69 43.4344C131.132 43.145 132.387 42.4178 134.407 42.4178C136.95 42.4178 137.847 43.642 137.847 44.9635V45.3602C131.961 45.9925 128.943 47.1218 128.943 50.7019C128.943 53.1379 130.736 54.9867 133.281 54.9867C135.828 54.9867 137.269 53.6373 137.91 53.0423V54.6857H140.48V44.8764C140.48 41.6875 138.215 40.037 134.784 40.037V40.0363ZM91.6469 50.7455C90.4637 51.9783 89.2637 52.6013 87.7257 52.6013C86.2329 52.6013 85.4498 51.6322 85.4498 50.6133C85.4498 49.1394 86.6054 47.9012 91.6469 47.4065V50.7455ZM88.5832 40.0363C85.2191 40.0363 83.9072 40.9572 83.9072 42.0142C83.9072 42.8176 84.3685 43.313 84.4896 43.4344C84.9318 43.145 86.1862 42.4178 88.207 42.4178C90.7495 42.4178 91.6469 43.642 91.6469 44.9635V45.3602C85.7601 45.9925 82.7424 47.1218 82.7424 50.7019C82.7424 53.1379 84.5356 54.9867 87.0797 54.9867C89.6269 54.9867 91.0683 53.6373 91.7097 53.0423V54.6857H94.2799V44.8764C94.2799 41.6875 92.0147 40.037 88.5832 40.037V40.0363Z" fill="black"/>
</g>
<defs>
<clipPath id="clip0_3979_19594">
<rect width="141" height="21" fill="white" transform="translate(0 34)"/>
</clipPath>
</defs>
</svg>
