<svg width="48" height="48" viewBox="0 0 48 48" fill="none" xmlns="http://www.w3.org/2000/svg">
<g filter="url(#filter0_i_4168_20610)">
<path d="M32.0676 28.195C34.4088 25.265 36.75 22.5911 36.75 18.775C36.75 12.1338 31.2095 6.75 24.375 6.75C17.5405 6.75 12 12.1338 12 18.775C12 22.5911 14.6757 25.59 16.6824 28.195C18.6892 30.8 18.6892 36 18.6892 36H30.0608C30.0608 36 29.7264 31.125 32.0676 28.195Z" fill="white"/>
</g>
<path d="M29.6702 35.1886C29.6684 35.3566 29.6695 35.5034 29.6718 35.625H19.0559C19.0512 35.4894 19.0438 35.3206 19.0322 35.1246C19.0003 34.5878 18.9366 33.8443 18.809 33.0172C18.5563 31.3799 18.0439 29.3479 16.9795 27.9661C16.7789 27.7057 16.573 27.4431 16.365 27.1776C15.5197 26.0991 14.6371 24.9731 13.9113 23.748C13.0114 22.2291 12.375 20.5922 12.375 18.775C12.375 12.351 17.7374 7.125 24.375 7.125C31.0126 7.125 36.375 12.351 36.375 18.775C36.375 22.228 34.3855 24.707 32.1717 27.4654C32.04 27.6295 31.9075 27.7946 31.7746 27.9609C30.541 29.5048 30.0269 31.5366 29.8145 33.1472C29.7075 33.9579 29.6755 34.6744 29.6702 35.1886Z" stroke="black" stroke-width="0.75"/>
<rect x="18.375" y="34.125" width="12" height="3.75" rx="1.875" fill="white" stroke="#14111D" stroke-width="0.75"/>
<rect x="20.625" y="37.875" width="7.5" height="3.75" rx="1.875" fill="white" stroke="#14111D" stroke-width="0.75"/>
<path d="M29.599 19.125H23.043V27.194L29.599 19.125Z" fill="#00BA40"/>
<path d="M19.5001 20.819L26.0562 20.819L26.0562 12.75L19.5001 20.819Z" fill="#00BA40"/>
<defs>
<filter id="filter0_i_4168_20610" x="12" y="6.75" width="24.75" height="29.25" filterUnits="userSpaceOnUse" color-interpolation-filters="sRGB">
<feFlood flood-opacity="0" result="BackgroundImageFix"/>
<feBlend mode="normal" in="SourceGraphic" in2="BackgroundImageFix" result="shape"/>
<feColorMatrix in="SourceAlpha" type="matrix" values="0 0 0 0 0 0 0 0 0 0 0 0 0 0 0 0 0 0 127 0" result="hardAlpha"/>
<feOffset dx="3.75"/>
<feComposite in2="hardAlpha" operator="arithmetic" k2="-1" k3="1"/>
<feColorMatrix type="matrix" values="0 0 0 0 0.941176 0 0 0 0 0.941176 0 0 0 0 0.941176 0 0 0 1 0"/>
<feBlend mode="normal" in2="shape" result="effect1_innerShadow_4168_20610"/>
</filter>
</defs>
</svg>

